HIERARCHY
ROOT Hips
{
	OFFSET	0.00	0.00	0.00
	CHANNELS 6 Xposition Yposition Zposition Zrotation Xrotation Yrotation
	JOINT Spine
	{
		OFFSET	 0.00	0.01	 0.00
		CHANNELS 3 Zrotation Xrotation Yrotation
		JOINT Spine1
		{
			OFFSET	 0.00	 2.45913012437421	 0.00
			CHANNELS 3 Zrotation Xrotation Yrotation
            JOINT Neck
            {
                OFFSET	 0.00	 2.48462964506057	 0.00
                CHANNELS 3 Zrotation Xrotation Yrotation
                JOINT Head
                {
                    OFFSET	 0.00	 0.927524780924562	 0.00
                    CHANNELS 3 Zrotation Xrotation Yrotation
                    End Site 
                    {
                        OFFSET	 0.00	 1.14999962169752	 0.00
                    }
                }
            }
			JOINT LeftShoulder
			{
				OFFSET	 0.00	 2.48462964506057	 0.00
				CHANNELS 3 Zrotation Xrotation Yrotation
				JOINT LeftUpArm
				{
					OFFSET	 0.00	 1.24881979654096	 0.00
					CHANNELS 3 Zrotation Xrotation Yrotation
					JOINT LeftForeArm
					{
						OFFSET	 0.00	2.59758046908119	 0.00
						CHANNELS 3 Zrotation Xrotation Yrotation
						JOINT LeftHand
						{
							OFFSET	 0.00	2.45542024364365	 0.00
							CHANNELS 3 Zrotation Xrotation Yrotation
							JOINT LeftHandThumb 
							{
								OFFSET	 0.00	0.00	 0.00
								CHANNELS 3 Zrotation Xrotation Yrotation
								End Site
								{
									OFFSET	 0.00	0.00	1.00000003353624
								}
							}
							JOINT L_Wrist_End 
							{
								OFFSET	 0.00	0.99999967115358	 0.00
								CHANNELS 3 Zrotation Xrotation Yrotation
								End Site 
								{
									OFFSET	 0.00	 0.00	 0.00
								}
							}
						}
					}
				}
			}
			JOINT RightShoulder
			{
				OFFSET	 0.00	 2.48462964506057	 0.00
				CHANNELS 3 Zrotation Xrotation Yrotation
				JOINT RightUpArm
				{
					OFFSET	 0.00	 1.24881979654096	 0.00
					CHANNELS 3 Zrotation Xrotation Yrotation
					JOINT RightForeArm
					{
						OFFSET	 0.00	2.59758046908119	 0.00
						CHANNELS 3 Zrotation Xrotation Yrotation
						JOINT RightHand
						{
							OFFSET	 0.00	2.45542024364365	 0.00
							CHANNELS 3 Zrotation Xrotation Yrotation
							JOINT RightHandThumb 
							{
								OFFSET	 0.00	0.00	 0.00
								CHANNELS 3 Zrotation Xrotation Yrotation
								End Site
								{
									OFFSET	 0.00	0.00	1.00000003353624
								}
							}
							JOINT R_Wrist_End 
							{
								OFFSET	 0.00	0.99999967115358	 0.00
								CHANNELS 3 Zrotation Xrotation Yrotation
								End Site 
								{
									OFFSET	 0.00	 0.00	 0.00
								}
							}
						}
					}
				}
			}
		}
	}
	JOINT LeftUpLeg
	{
		OFFSET	 1.2719394002717	 0.00	 0.00
		CHANNELS 3 Zrotation Xrotation Yrotation
		JOINT LeftLowLeg
		{
			OFFSET	 0.00	-4.3429100912261	 0.00
			CHANNELS 3 Zrotation Xrotation Yrotation
			JOINT LeftFoot
			{
				OFFSET	 0.00	-4.48767017425826	 0.00
				CHANNELS 3 Zrotation Xrotation Yrotation
				JOINT LeftToeBase
                {
                    OFFSET	 0.00	0.00	 1.51507020887566
                    CHANNELS 3 Zrotation Xrotation Yrotation
                    End Site 
                    {
                        OFFSET	 0.00	0.00	 0.75000010571191
                    }
                }
			}
		}
	}
	JOINT RightUpLeg
	{
		OFFSET	 -1.2719393604653	 0.00	 0.00
		CHANNELS 3 Zrotation Xrotation Yrotation
		JOINT RightLowLeg
		{
			OFFSET	 0.00	-4.3429100912261	 0.00
			CHANNELS 3 Zrotation Xrotation Yrotation
			JOINT RightFoot
			{
				OFFSET	 0.00	-4.48767017425826	 0.00
				CHANNELS 3 Zrotation Xrotation Yrotation
				JOINT RightToeBase
                {
                    OFFSET	 0.00	0.00	 1.51507020887566
                    CHANNELS 3 Zrotation Xrotation Yrotation
                    End Site 
                    {
                        OFFSET	 0.00	0.00	 0.749999965609858
                    }
                }   
			}
		}
	}
}
MOTION 
Frames:	8 
Frame Time: 0.02 
  -3.1495901489257814 -2.1058999633789064 9.139520263671875 -88.6001 75.8543 450.387 11.1528 -23.6793 -3.01973 3.40207 15.8853 -2.4347 8.11973 50.1957 12.0503 -46.0908 -75.7421 -26.0714 -105.1299 6.81817 6.37928 -60.5161 18.5968 -357.162 0.0 140.845 0.0 -26.558 2.71062 -22.5111 0.0 0.0 0.0 0.0 0.0 0.0 105.0595 -1.27442 1.90489 23.7682 -25.7838 -67.9297 0.0 88.2938 0.0 -7.24275 -27.2912 39.2065 0.0 0.0 0.0 0.0 0.0 0.0 -7.50045 -14.6134 3.17841 0.0 44.3677 0.0 8.30885 3.8886003 12.9904 0.0 -31.4879 0.0 22.5647 3.73919 387.383 0.0 4.80149 0.0 6.24525 5.03957 -16.8498 0.0 -16.20068 0.0 
  -3.1354501342773435 -2.0944700622558594 9.1435302734375 -88.5661 75.8936 450.171 11.1195 -23.717 -3.15992 3.55647 15.7117 -2.52233 8.13235 50.7866 12.3711 -45.5156 -75.9479 -25.1572 -105.3932 6.24831 6.94171 -58.5841 18.4787 -358.537 0.0 139.064 0.0 -28.0671 2.74156 -20.7289 0.0 0.0 0.0 0.0 0.0 0.0 104.8896 -1.61305 2.27682 23.3891 -25.6187 -66.7129 0.0 87.9188 0.0 -4.74946 -26.4142 37.4282 0.0 0.0 0.0 0.0 0.0 0.0 -7.63396 -14.8404 3.22422 0.0 44.5618 0.0 8.07935 4.4297 13.0729 0.0 -31.915 0.0 22.4366 3.69061 387.297 0.0 4.85353 0.0 6.28822 5.0940905 -16.6293 0.0 -16.21908 0.0 
  -3.1189801025390627 -2.0800100708007814 9.148590087890625 -88.8542 75.929 450.346 11.1545 -23.7564 -3.2558 3.66526 15.4722 -2.61268 7.97053 51.2292 12.8374 -45.1158 -76.0879 -24.5249 -105.545 5.9537 7.65176 -56.722 18.1183 -359.943 0.0 137.569 0.0 -28.826 1.40829 -17.9881 0.0 0.0 0.0 0.0 0.0 0.0 104.772 -1.88284 2.56518 23.0366 -25.6558 -65.118 0.0 87.6322 0.0 -2.58371 -25.4848 34.8483 0.0 0.0 0.0 0.0 0.0 0.0 -7.77537 -15.437 3.13915 0.0 45.2025 0.0 7.38794 5.1418 12.9503 0.0 -32.304398 0.0 22.3114 3.51004 387.407 0.0 4.95774 0.0 6.42715 5.1214504 -16.5881 0.0 -16.22878 0.0 
  -3.1019601440429687 -2.0628199768066406 9.153560180664062 -88.7691 75.9989 450.215 11.139 -23.8027 -3.36384 3.68068 15.5957 -2.71856 7.94106 51.1656 13.1741 -44.0287 -76.2924 -23.146 -105.1092 5.77405 6.5032 -55.9123 16.3564 -360.244 0.0 136.059 0.0 -31.0961 -0.229986 -15.9108 0.0 0.0 0.0 0.0 0.0 0.0 104.757904 -2.42089 2.85388 22.7077 -25.2264 -63.4262 0.0 87.4465 0.0 -0.654778 -24.701 32.3978 0.0 0.0 0.0 0.0 0.0 0.0 -7.9355 -16.3012 2.95044 0.0 46.3965 0.0 6.17214 6.0512896 12.5899 0.0 -32.6171 0.0 22.1671 3.40001 387.51 0.0 5.04399 0.0 6.48159 5.1511803 -16.6913 0.0 -16.24422 0.0 
  -3.0864801025390625 -2.0423899841308595 9.1597998046875 -88.7419 76.1109 450.275 11.0078 -23.7493 -3.54203 3.82049 15.4714 -2.792 7.84562 51.3914 13.4611 -44.2367 -76.5008 -22.9693 -105.2604 5.32162 7.2053 -54.1095 16.3604 -361.359 0.0 134.462 0.0 -33.0107 -2.53938 -13.5728 0.0 0.0 0.0 0.0 0.0 0.0 104.8343 -2.82131 3.02673 22.3372 -25.0838 -61.274 0.0 87.3712 0.0 2.07461 -24.1732 30.8972 0.0 0.0 0.0 0.0 0.0 0.0 -8.1401 -17.5122 2.55082 0.0 48.0606 0.0 4.40742 7.07985 12.0557 0.0 -32.2384 0.0 22.0431 3.18079 388.168 0.0 5.22702 0.0 6.72177 5.0972204 -17.3803 0.0 -16.35784 0.0 
  -3.0704400634765623 -2.0185000610351564 9.164559936523437 -88.3135 76.2205 449.933 10.9148 -23.6038 -3.62707 3.94807 15.526 -2.82865 7.71946 51.2449 13.7523 -43.9991 -76.6514 -22.3276 -105.1676 4.98553 6.99946 -52.8255 15.6154 -361.816 0.0 133.145 0.0 -34.9962 -6.11294 -10.6331 0.0 0.0 0.0 0.0 0.0 0.0 104.8657 -3.30864 3.21991 22.1598 -24.8313 -59.1113 0.0 87.2513 0.0 4.68702 -24.1118 28.5956 0.0 0.0 0.0 0.0 0.0 0.0 -8.36148 -18.9041 2.11055 0.0 50.0854 0.0 2.4561 8.0 11.6238 0.0 -30.6531 0.0 21.9269 3.10475 389.255 0.0 5.27967 0.0 6.92517 5.03736 -18.6237 0.0 -16.50433 0.0 
  -3.055979919433594 -1.9923599243164063 9.168489990234375 -87.4593 76.2591 449.071 10.9487 -23.3191 -3.57729 4.09261 15.6817 -2.85026 7.28251 50.8469 14.3686 -43.9361 -76.7156 -22.0077 -105.0469 4.68106 6.81092 -51.5765 14.8759 -362.261 0.0 131.975 0.0 -36.6069 -9.94266 -6.28254 0.0 0.0 0.0 0.0 0.0 0.0 104.8744 -3.64264 3.31636 22.1522 -24.7484 -56.8386 0.0 87.1884 0.0 5.46988 -23.8387 26.2127 0.0 0.0 0.0 0.0 0.0 0.0 -8.44523 -20.3528 1.84873 0.0 52.2355 0.0 -0.680395 8.02827 11.2206 0.0 -27.621 0.0 21.8579 3.10128 389.84 0.0 5.36748 0.0 7.16276 5.0281897 -19.2627 0.0 -16.60547 0.0 
  -3.042330017089844 -1.966020050048828 9.171170043945313 -86.078 76.2311 447.592 11.0826 -22.9151 -3.41438 4.21736 15.9669 -2.86201 6.94085 50.2303 14.8657 -43.6699 -76.805 -21.3815 -104.854996 4.36072 6.69743 -50.4375 14.3381 -362.778 0.0 130.933 0.0 -38.8246 -13.6716 -2.8794 0.0 0.0 0.0 0.0 0.0 0.0 104.8626 -3.96056 3.30379 22.2651 -24.5166 -54.6387 0.0 87.2829 0.0 5.13048 -24.0513 23.586 0.0 0.0 0.0 0.0 0.0 0.0 -8.36693 -21.6504 1.87249 0.0 54.0515 0.0 -4.80797 6.7453203 10.7943 0.0 -24.862831 0.0 21.747 3.32864 389.518 0.0 5.245 0.0 7.27124 5.15889 -18.9748 0.0 -16.44843 0.0 
